<?xml version="1.0" encoding="UTF-8"?>
<svg version="1.1" viewBox="0 0 2048 480" width="426" height="100" xmlns="http://www.w3.org/2000/svg">
<path transform="translate(242,22)" d="m0 0h18l14 3 14 7 11 9 77 77 8 7 6 7-6 7-10 10-3 4-5-2-12-14-27-27-8-7-10-9-24-24-7-8-9-6-10-4-9-1-12 2-10 5-13 11-8 8-7 8-3 4 4 2 4 5 8 7 12 11 37 37 8 7 2 2-1 4-6 7-12 12-5-2-7-7-7-8-28-28-7-8-7-7-7-8-7-7-4 2-17 17-6 7h-2l-2 4-9 9-16 14 6 7 11 9 14 12-1 4-4 2-2 4-8 7-5 4-5-1-12-14-10-12-3-1-26 26-6 9-3 8-1 14 3 12 7 11 12 11 9 10 4 1 11-11 7-8 43-43 7-8 2-3 4 1 14 15 13 13 9 11 4 5 3 1 11-12 16-16 7-8 26-26 9-11 3-3h2l7 8 27 27 7 8 2 2 4-1 16-17 14-15 19-19 8-7 9-10 8-7 11-11 7-6-2-5-7-8 3-3 37-10 15-5 4 1-8 26-6 26-2 7-5-2-9-6-3 1-4 6-11 12h-2l4 5 8 7 9 13 6 14 3 15v16l-3 14-8 16-7 10-11 12-56 56-8 7-14 15-51 51-14 11-15 8-11 3-6 1h-18l-15-4-14-7-10-8-17-16-7-8-43-43-8-7-5-5 1-4 17-17 4 1 14 14 11 9 30 30 9 11 15 15 11 7 8 3 13 1 12-3 10-6 26-26-2-4-15-15-7-8-15-15-8-7-50-50-7-8-22-22-4 1-17 16-7 7-7 6-7 8-12 12-9 11-12 12-9-8-7-8-31-31-9-14-6-13-2-13v-12l3-16 6-14 10-13 8-8 8-7 40-40 7-8 13-14 8-7 7-7 8-7 37-37 7-8 7-7 11-7 13-5zm168 173-8 7-24 24-7 8-13 13 2 4 37 37 4-2 25-25 6-10 3-12v-9l-4-12-6-10-11-13zm-120 29-13 15-25 25-14 11 6 7 14 14 6 5 7 8 9 9 7 8 28 28 8 7 4-2 13-12 36-36 1-3-14-15-29-29-8-7-15-14-13-13-4-5z" fill="#00A693"/>
<path transform="translate(1308,157)" d="m0 0h29l1 1v126l-1 19-3 17-6 15-8 11-6 7-11 9-10 7-13 6-16 4-8 1h-11l-17-3-14-5-12-7-11-9-7-8-9-14-6-15-3-14v-25l4-14 8-17 8-12 9-10 11-8 17-8 12-3 7-1h18l14 3 17 8 18 13-1-4-1-49v-20zm-67 78-10 3-11 6-10 9-7 8-7 14-3 13v12l4 16 7 13 11 12 14 7 15 4h15l17-5 10-6 7-6 9-13 5-12 2-15-1-13-4-12-7-11-8-9-13-9-13-5-4-1z" fill="#FEFEFE"/>
<path transform="translate(865,207)" d="m0 0h18l16 3 13 5 14 8 10 9 7 9 8 15 5 15 2 12 1 20-11 1-132 1 3 10 9 16 7 8 10 6 14 5 12 2 14-1 15-4 11-6 7-6 6-9 29-1 1 3-9 16-11 13-11 9-15 8-14 4-16 2h-10l-19-3-15-6-12-7-13-12-7-8-8-14-5-17-1-5v-27l4-16 8-16 7-10 9-10 12-9 16-8 15-4zm3 27-10 2-9 4-9 6-9 8-11 14-4 7 1 1 71 1h41l1-2-8-16-9-10-7-6-13-6-16-3z" fill="#FEFEFE"/>
<path transform="translate(1600,207)" d="m0 0h16l16 3 16 7 12 7 11 10 7 10 8 16 4 11 2 13 1 69v23l-26 1-1-1v-11l1-9-7 4-14 10-10 5-16 4-9 1h-9l-14-2-13-4-10-5-13-9-12-11-9-13-6-14-4-16v-25l4-15 8-16 8-11 9-10 12-9 16-8 15-4zm-3 28-14 5-11 8-9 9-7 11-4 9-1 5v23l4 13 6 11 9 10 9 6 16 6 6 1h13l19-5 9-5 10-9 7-11 5-12 2-11v-9l-2-13-5-12-8-10-7-7-11-7-13-5-5-1z" fill="#00A693"/>
<path transform="translate(1363,211)" d="m0 0h143l1 1v22l-7 9-10 10-7 8-25 25-7 8-12 13-11 13-9 11-14 13-3 6 2-1h104v27l-1 1h-147l-1-2v-19l3-7 21-21 7-8 10-10 7-8 13-14 9-11 14-15 20-20 2-3h-99l-4-2z" fill="#FEFEFE"/>
<path transform="translate(1798,207)" d="m0 0h20l14 3 12 5 11 6 10 8 9 9 10 16 9 19v3l-31-1-6-10-9-13-9-8-13-6-9-2-11-1-14 2-12 5-8 6-7 7-6 10-5 12-2 9v15l4 16 8 16 8 8 10 5 13 4 6 1h16l18-5 10-6 10-12 8-16 1-1h18l11 1-1 6-7 16-7 11-10 11-13 10-10 6-18 6-14 2h-11l-19-3-15-6-11-8-10-9-8-8-7-11-6-14-4-17v-21l4-16 8-17 7-10 9-10 10-9 14-8 13-4z" fill="#00A693"/>
<path transform="translate(1053,207)" d="m0 0h19l15 3 16 8 11 8 10 11 7 12 5 14 1 5 1 23v85l-1 1h-28l-1-2v-81l-1-24-4-11-7-10-8-6-12-5-5-1h-20l-12 4-10 7-7 10-3 8-1 4-1 106-6 1h-23l-1-1v-104l4-15 8-16 7-9 6-7 12-9 13-6z" fill="#FEFEFE"/>
<path transform="translate(546,153)" d="m0 0h145l21 1v27l-2 1h-67v194l-1 1h-28v-195h-68l-1-1v-27z" fill="#FEFEFE"/>
<path transform="translate(1921,157)" d="m0 0h27l1 2-1 52h57v27h-57l1 70 2 11 5 10 8 9 8 5 9 3 8 1h15l1 1 1 9v13l-1 7-5 1-22-3-14-4-15-8-12-11-7-8-5-11-3-15-1-14z" fill="#00A693"/>
<path transform="translate(771,210)" d="m0 0 9 1 1 1v28h-20l-10 2-14 7-6 5-9 12-3 9-1 10v91l-2 1h-25l-2-7v-30l1-63 3-16 6-15 7-10 9-9 11-7 11-5 12-3z" fill="#FEFEFE"/>
</svg>
